G04*
G04 #@! TF.GenerationSoftware,Altium Limited,Altium Designer,22.9.1 (49)*
G04*
G04 Layer_Color=16711935*
%FSLAX25Y25*%
%MOIN*%
G70*
G04*
G04 #@! TF.SameCoordinates,EA2DCB70-2D32-4E2D-AF08-B15159FC065B*
G04*
G04*
G04 #@! TF.FilePolarity,Negative*
G04*
G01*
G75*
%ADD39R,0.08280X0.03162*%
%ADD40R,0.11824X0.09068*%
%ADD58C,0.16548*%
%ADD59C,0.05118*%
%ADD60R,0.05118X0.05118*%
%ADD61C,0.03162*%
%ADD62C,0.22847*%
%ADD63C,0.05800*%
G36*
X591000Y0D02*
X653D01*
X462Y462D01*
X0Y653D01*
Y315000D01*
X591000D01*
Y0D01*
D02*
G37*
%LPC*%
G36*
X585000Y309000D02*
X6000D01*
Y6000D01*
X585000D01*
Y309000D01*
D02*
G37*
%LPD*%
G36*
X584500Y42000D02*
X578500D01*
Y60000D01*
X584500D01*
Y42000D01*
D02*
G37*
D39*
X75992Y52649D02*
D03*
Y60523D02*
D03*
Y44776D02*
D03*
Y64460D02*
D03*
Y48713D02*
D03*
Y56586D02*
D03*
X154732Y52649D02*
D03*
Y60523D02*
D03*
Y44776D02*
D03*
Y64460D02*
D03*
Y48713D02*
D03*
Y56586D02*
D03*
D40*
X85244Y76862D02*
D03*
Y32374D02*
D03*
X163984Y76862D02*
D03*
Y32374D02*
D03*
D58*
X341000Y63913D02*
D03*
Y16913D02*
D03*
D59*
X446031Y283858D02*
D03*
X453905D02*
D03*
X461779D02*
D03*
X446031Y244488D02*
D03*
X453905D02*
D03*
X461779D02*
D03*
X446031Y205118D02*
D03*
X453905D02*
D03*
X461779D02*
D03*
X446031Y165748D02*
D03*
X453905D02*
D03*
X461779D02*
D03*
X239031Y283858D02*
D03*
X246905D02*
D03*
X254779D02*
D03*
X239031Y244488D02*
D03*
X246905D02*
D03*
X254779D02*
D03*
X239031Y205118D02*
D03*
X246905D02*
D03*
X254779D02*
D03*
X239031Y165748D02*
D03*
X246905D02*
D03*
X254779D02*
D03*
X32032Y283858D02*
D03*
X39906D02*
D03*
X47780D02*
D03*
X32032Y244488D02*
D03*
X39906D02*
D03*
X47780D02*
D03*
X32032Y205118D02*
D03*
X39906D02*
D03*
X47780D02*
D03*
X32032Y165748D02*
D03*
X39906D02*
D03*
X47780D02*
D03*
X515032Y283858D02*
D03*
X522906D02*
D03*
X530780D02*
D03*
X515032Y244488D02*
D03*
X522906D02*
D03*
X530780D02*
D03*
X515032Y205118D02*
D03*
X522906D02*
D03*
X530780D02*
D03*
X515032Y165748D02*
D03*
X522906D02*
D03*
X530780D02*
D03*
X377032Y283858D02*
D03*
X384906D02*
D03*
X392780D02*
D03*
X377032Y244488D02*
D03*
X384906D02*
D03*
X392780D02*
D03*
X377032Y205118D02*
D03*
X384906D02*
D03*
X392780D02*
D03*
X377032Y165748D02*
D03*
X384906D02*
D03*
X392780D02*
D03*
X308032Y283858D02*
D03*
X315906D02*
D03*
X323780D02*
D03*
X308032Y244488D02*
D03*
X315906D02*
D03*
X323780D02*
D03*
X308032Y205118D02*
D03*
X315906D02*
D03*
X323780D02*
D03*
X308032Y165748D02*
D03*
X315906D02*
D03*
X323780D02*
D03*
X170032Y283858D02*
D03*
X177906D02*
D03*
X185780D02*
D03*
X170032Y244488D02*
D03*
X177906D02*
D03*
X185780D02*
D03*
X170032Y205118D02*
D03*
X177906D02*
D03*
X185780D02*
D03*
X170032Y165748D02*
D03*
X177906D02*
D03*
X185780D02*
D03*
X101032Y283858D02*
D03*
X108906D02*
D03*
X116780D02*
D03*
X101032Y244488D02*
D03*
X108906D02*
D03*
X116780D02*
D03*
X101032Y205118D02*
D03*
X108906D02*
D03*
X116780D02*
D03*
X101032Y165748D02*
D03*
X108906D02*
D03*
X116780D02*
D03*
D60*
X469653Y283858D02*
D03*
Y244488D02*
D03*
Y205118D02*
D03*
Y165748D02*
D03*
X262653Y283858D02*
D03*
Y244488D02*
D03*
Y205118D02*
D03*
Y165748D02*
D03*
X55654Y283858D02*
D03*
Y244488D02*
D03*
Y205118D02*
D03*
Y165748D02*
D03*
X538654Y283858D02*
D03*
Y244488D02*
D03*
Y205118D02*
D03*
Y165748D02*
D03*
X400654Y283858D02*
D03*
Y244488D02*
D03*
Y205118D02*
D03*
Y165748D02*
D03*
X331654Y283858D02*
D03*
Y244488D02*
D03*
Y205118D02*
D03*
Y165748D02*
D03*
X193654Y283858D02*
D03*
Y244488D02*
D03*
Y205118D02*
D03*
Y165748D02*
D03*
X124654Y283858D02*
D03*
Y244488D02*
D03*
Y205118D02*
D03*
Y165748D02*
D03*
D61*
X119000Y26648D02*
D03*
X112980Y26629D02*
D03*
X106980D02*
D03*
X172500Y70020D02*
D03*
X86500Y54520D02*
D03*
X162500Y39520D02*
D03*
X265776Y68744D02*
D03*
X324916Y83020D02*
D03*
X255000Y68520D02*
D03*
X260500D02*
D03*
X225879Y48338D02*
D03*
X471000Y92888D02*
D03*
X333000Y102520D02*
D03*
X319085Y83020D02*
D03*
X322000Y82935D02*
D03*
X316000Y83020D02*
D03*
X328000D02*
D03*
X402000Y102520D02*
D03*
X234000Y30020D02*
D03*
X235681Y32627D02*
D03*
X237500Y35020D02*
D03*
X195000Y102520D02*
D03*
X345000Y36520D02*
D03*
X315000Y12520D02*
D03*
X202500Y13520D02*
D03*
X323000Y12520D02*
D03*
X364000Y75020D02*
D03*
X375000D02*
D03*
X380500D02*
D03*
X386000D02*
D03*
X255000Y79020D02*
D03*
X266000D02*
D03*
X260500D02*
D03*
X249500D02*
D03*
X514179Y99488D02*
D03*
X496500Y107520D02*
D03*
X249470Y68701D02*
D03*
X257000Y98020D02*
D03*
X262000Y94520D02*
D03*
X402500Y75201D02*
D03*
X391500Y75020D02*
D03*
X397000D02*
D03*
X369500D02*
D03*
X57071Y102591D02*
D03*
X126071Y102520D02*
D03*
X286500D02*
D03*
X471000D02*
D03*
X189000Y28520D02*
D03*
X185500D02*
D03*
X229000Y30020D02*
D03*
X202500Y24020D02*
D03*
X239000Y82020D02*
D03*
X221750Y44776D02*
D03*
X200500Y29020D02*
D03*
X241000Y87520D02*
D03*
X279000Y96520D02*
D03*
X268000Y102520D02*
D03*
X257734Y101339D02*
D03*
X222681Y110020D02*
D03*
X224500Y112520D02*
D03*
X220500Y107520D02*
D03*
X13500D02*
D03*
X93500Y70020D02*
D03*
Y38520D02*
D03*
X119000Y14020D02*
D03*
X113000Y20020D02*
D03*
X107000D02*
D03*
Y14020D02*
D03*
X113000D02*
D03*
X119042Y19882D02*
D03*
X178413Y7023D02*
D03*
X181274Y6915D02*
D03*
X175500Y7020D02*
D03*
X175000Y46020D02*
D03*
X175500Y54520D02*
D03*
X165500D02*
D03*
X96500D02*
D03*
X75980Y52649D02*
D03*
X154720D02*
D03*
Y56586D02*
D03*
X75980D02*
D03*
X19500Y115020D02*
D03*
X88500D02*
D03*
X157500D02*
D03*
X226500D02*
D03*
X295500D02*
D03*
X364500D02*
D03*
X502500D02*
D03*
X17500Y112520D02*
D03*
X86500D02*
D03*
X155500D02*
D03*
X293500D02*
D03*
X362500D02*
D03*
X500500D02*
D03*
X15681Y110020D02*
D03*
X84681D02*
D03*
X153681D02*
D03*
X291681D02*
D03*
X360681D02*
D03*
X498681D02*
D03*
X82500Y107520D02*
D03*
X151500D02*
D03*
X289500D02*
D03*
X358500D02*
D03*
X427500D02*
D03*
X20500Y130020D02*
D03*
X16500Y134520D02*
D03*
X74500Y201520D02*
D03*
X34476Y124838D02*
D03*
X74500Y280020D02*
D03*
X30500Y136520D02*
D03*
X74500Y162020D02*
D03*
X26500Y121338D02*
D03*
X74500Y241020D02*
D03*
X21976Y139020D02*
D03*
X51500Y179020D02*
D03*
Y195020D02*
D03*
Y258020D02*
D03*
Y273520D02*
D03*
X74500Y173020D02*
D03*
X23976Y119988D02*
D03*
X74500Y252020D02*
D03*
X34000Y130701D02*
D03*
X74500Y212520D02*
D03*
X21819Y122020D02*
D03*
X74500Y291020D02*
D03*
X24157Y141812D02*
D03*
X89500Y130020D02*
D03*
X85500Y134520D02*
D03*
X143500Y201520D02*
D03*
X103476Y124838D02*
D03*
X143500Y280020D02*
D03*
X99500Y136520D02*
D03*
X143500Y162020D02*
D03*
X95500Y121338D02*
D03*
X143500Y241020D02*
D03*
X90976Y139020D02*
D03*
X120500Y179020D02*
D03*
Y195020D02*
D03*
Y258020D02*
D03*
Y273520D02*
D03*
X143500Y173020D02*
D03*
X92976Y119988D02*
D03*
X143500Y252020D02*
D03*
X103000Y130701D02*
D03*
X143500Y212520D02*
D03*
X90819Y122020D02*
D03*
X143500Y291020D02*
D03*
X93157Y141812D02*
D03*
X158500Y130020D02*
D03*
X154500Y134520D02*
D03*
X212500Y201520D02*
D03*
X172476Y124838D02*
D03*
X212500Y280020D02*
D03*
X168500Y136520D02*
D03*
X212500Y162020D02*
D03*
X164500Y121338D02*
D03*
X212500Y241020D02*
D03*
X159976Y139020D02*
D03*
X189500Y179020D02*
D03*
Y195020D02*
D03*
Y258020D02*
D03*
Y273520D02*
D03*
X212500Y173020D02*
D03*
X161976Y119988D02*
D03*
X212500Y252020D02*
D03*
X172000Y130701D02*
D03*
X212500Y212520D02*
D03*
X159819Y122020D02*
D03*
X212500Y291020D02*
D03*
X162157Y141812D02*
D03*
X227500Y130020D02*
D03*
X223500Y134520D02*
D03*
X281500Y201520D02*
D03*
X241476Y124838D02*
D03*
X281500Y280020D02*
D03*
X237500Y136520D02*
D03*
X281500Y162020D02*
D03*
X233500Y121338D02*
D03*
X281500Y241020D02*
D03*
X228976Y139020D02*
D03*
X258500Y179020D02*
D03*
Y195020D02*
D03*
Y258020D02*
D03*
Y273520D02*
D03*
X281500Y173020D02*
D03*
X230976Y119988D02*
D03*
X281500Y252020D02*
D03*
X241000Y130701D02*
D03*
X281500Y212520D02*
D03*
X228819Y122020D02*
D03*
X281500Y291020D02*
D03*
X231157Y141812D02*
D03*
X296500Y130020D02*
D03*
X292500Y134520D02*
D03*
X350500Y201520D02*
D03*
X310476Y124838D02*
D03*
X350500Y280020D02*
D03*
X306500Y136520D02*
D03*
X350500Y162020D02*
D03*
X302500Y121338D02*
D03*
X350500Y241020D02*
D03*
X297976Y139020D02*
D03*
X327500Y179020D02*
D03*
Y195020D02*
D03*
Y258020D02*
D03*
Y273520D02*
D03*
X350500Y173020D02*
D03*
X299976Y119988D02*
D03*
X350500Y252020D02*
D03*
X310000Y130701D02*
D03*
X350500Y212520D02*
D03*
X297819Y122020D02*
D03*
X350500Y291020D02*
D03*
X300157Y141812D02*
D03*
X365500Y130020D02*
D03*
X361500Y134520D02*
D03*
X419500Y201520D02*
D03*
X379476Y124838D02*
D03*
X419500Y280020D02*
D03*
X375500Y136520D02*
D03*
X419500Y162020D02*
D03*
X371500Y121338D02*
D03*
X419500Y241020D02*
D03*
X366976Y139020D02*
D03*
X396500Y179020D02*
D03*
Y195020D02*
D03*
Y258020D02*
D03*
Y273520D02*
D03*
X419500Y173020D02*
D03*
X368976Y119988D02*
D03*
X419500Y252020D02*
D03*
X379000Y130701D02*
D03*
X419500Y212520D02*
D03*
X366819Y122020D02*
D03*
X419500Y291020D02*
D03*
X369157Y141812D02*
D03*
X429681Y110020D02*
D03*
X431500Y112520D02*
D03*
X433500Y115020D02*
D03*
X434500Y130020D02*
D03*
X430500Y134520D02*
D03*
X488500Y201520D02*
D03*
X448476Y124838D02*
D03*
X488500Y280020D02*
D03*
X444500Y136520D02*
D03*
X488500Y162020D02*
D03*
X440500Y121338D02*
D03*
X488500Y241020D02*
D03*
X435976Y139020D02*
D03*
X465500Y179020D02*
D03*
Y195020D02*
D03*
Y258020D02*
D03*
Y273520D02*
D03*
X488500Y173020D02*
D03*
X437976Y119988D02*
D03*
X488500Y252020D02*
D03*
X448000Y130701D02*
D03*
X488500Y212520D02*
D03*
X435819Y122020D02*
D03*
X488500Y291020D02*
D03*
X438157Y141812D02*
D03*
X503500Y130020D02*
D03*
X513500Y136520D02*
D03*
X504976Y139020D02*
D03*
X517000Y130701D02*
D03*
X506976Y119988D02*
D03*
X509500Y121338D02*
D03*
X517476Y124838D02*
D03*
X507157Y141812D02*
D03*
X504819Y122020D02*
D03*
X499500Y134520D02*
D03*
X534500Y179020D02*
D03*
Y195020D02*
D03*
Y258020D02*
D03*
Y273520D02*
D03*
X557500Y162020D02*
D03*
Y173020D02*
D03*
Y291020D02*
D03*
Y280020D02*
D03*
Y252020D02*
D03*
Y241020D02*
D03*
Y212520D02*
D03*
Y201520D02*
D03*
D62*
X11811Y11811D02*
D03*
X578740Y303150D02*
D03*
Y90551D02*
D03*
Y11811D02*
D03*
X11811Y90551D02*
D03*
Y303150D02*
D03*
D63*
X283000Y52520D02*
D03*
Y36520D02*
D03*
Y44020D02*
D03*
Y60520D02*
D03*
X154500Y42020D02*
D03*
X76000Y67020D02*
D03*
Y42020D02*
D03*
X154500Y67020D02*
D03*
X149000Y60520D02*
D03*
Y48520D02*
D03*
X70500D02*
D03*
Y60520D02*
D03*
X499500Y294520D02*
D03*
X16500Y155020D02*
D03*
Y233520D02*
D03*
Y194520D02*
D03*
Y273020D02*
D03*
X85500Y155020D02*
D03*
Y233520D02*
D03*
Y194520D02*
D03*
Y294520D02*
D03*
X154500Y155020D02*
D03*
Y233520D02*
D03*
Y194520D02*
D03*
Y273020D02*
D03*
X223500Y155020D02*
D03*
Y233520D02*
D03*
Y194520D02*
D03*
Y273020D02*
D03*
X292500Y155020D02*
D03*
Y233520D02*
D03*
Y194520D02*
D03*
Y273020D02*
D03*
X361500Y155020D02*
D03*
Y233520D02*
D03*
Y194520D02*
D03*
Y273020D02*
D03*
X430500Y155020D02*
D03*
Y233520D02*
D03*
Y194520D02*
D03*
Y273020D02*
D03*
X499500Y233520D02*
D03*
Y194520D02*
D03*
Y155020D02*
D03*
M02*
