M48
;Layer_Color=9474304
;FILE_FORMAT=2:5
INCH,TZ
;TYPE=PLATED
T1F00S00C0.01181
T2F00S00C0.02800
T3F00S00C0.03150
T4F00S00C0.08268
T5F00S00C0.12205
%
T01
X517476Y124838
X517000Y130701
X513500Y136520
X504976Y139020
X507157Y141812
X499500Y134520
X503500Y130020
X504819Y122020
X506976Y119988
X509500Y121338
X502500Y115020
X500500Y112520
X498681Y110020
X496500Y107520
X514179Y99488
X471000Y102520
Y92888
X448476Y124838
X448000Y130701
X444500Y136520
X435976Y139020
X438157Y141812
X430500Y134520
X434500Y130020
X435819Y122020
X437976Y119988
X440500Y121338
X433500Y115020
X431500Y112520
X429681Y110020
X427500Y107520
X402000Y102520
X402500Y75201
X397000Y75020
X391500
X386000
X380500
X375000
X369500
X364000
X362500Y112520
X364500Y115020
X366819Y122020
X368976Y119988
X371500Y121338
X379476Y124838
X379000Y130701
X375500Y136520
X366976Y139020
X369157Y141812
X361500Y134520
X365500Y130020
X360681Y110020
X358500Y107520
X333000Y102520
X328000Y83020
X324916Y83020
X322000Y82935
X319085Y83020
X316000
X310476Y124838
X310000Y130701
X306500Y136520
X297976Y139020
X300157Y141812
X292500Y134520
X296500Y130020
X297819Y122020
X299976Y119988
X302500Y121338
X295500Y115020
X293500Y112520
X291681Y110020
X289500Y107520
X286500Y102520
X279000Y96520
X268000Y102520
X257734Y101339
X257000Y98020
X262000Y94520
X260500Y79020
X255000
X249500
X249470Y68701
X255000Y68520
X260500
X265776Y68744
X266000Y79020
X239000Y82020
X241000Y87520
X241476Y124838
X241000Y130701
X237500Y136520
X228976Y139020
X231157Y141812
X223500Y134520
X227500Y130020
X228819Y122020
X230976Y119988
X233500Y121338
X226500Y115020
X224500Y112520
X222681Y110020
X220500Y107520
X221750Y44776
X225879Y48338
X229000Y30020
X234000
X235681Y32627
X237500Y35020
X315000Y12520
X323000
X345000Y36520
X200500Y29020
X202500Y24020
Y13520
X181274Y6915
X178413Y7023
X175500Y7020
X185500Y28520
X189000
X175000Y46020
X175500Y54520
X165500
X154720Y52649
Y56586
X162500Y39520
X172500Y70020
X172476Y124838
X172000Y130701
X168500Y136520
X159976Y139020
X162157Y141812
X154500Y134520
X158500Y130020
X159819Y122020
X161976Y119988
X164500Y121338
X157500Y115020
X155500Y112520
X153681Y110020
X151500Y107520
X126071Y102520
X103476Y124838
X103000Y130701
X99500Y136520
X90976Y139020
X93157Y141812
X85500Y134520
X89500Y130020
X90819Y122020
X92976Y119988
X95500Y121338
X88500Y115020
X86500Y112520
X84681Y110020
X82500Y107520
X57071Y102591
X75980Y56586
Y52649
X86500Y54520
X96500
X93500Y70020
Y38520
X106980Y26629
X112980
X119000Y26648
X119042Y19882
X119000Y14020
X113000
Y20020
X107000
Y14020
X195000Y102520
X34476Y124838
X34000Y130701
X30500Y136520
X21976Y139020
X24157Y141812
X16500Y134520
X20500Y130020
X21819Y122020
X23976Y119988
X26500Y121338
X19500Y115020
X17500Y112520
X15681Y110020
X13500Y107520
X51500Y179020
Y195020
X74500Y201520
Y212520
Y241020
Y252020
Y280020
Y291020
X51500Y273520
Y258020
X120500
Y273520
X143500Y280020
Y291020
Y252020
Y241020
Y212520
Y201520
Y173020
Y162020
X120500Y179020
Y195020
X74500Y173020
Y162020
X189500Y179020
Y195020
Y258020
Y273520
X212500Y280020
Y291020
Y252020
Y241020
Y212520
Y201520
Y173020
Y162020
X258500Y179020
Y195020
X281500Y201520
Y212520
Y241020
Y252020
Y280020
Y291020
X258500Y273520
Y258020
X327500
Y273520
X350500Y280020
Y291020
Y252020
Y241020
Y212520
Y201520
Y173020
Y162020
X327500Y179020
Y195020
X281500Y173020
Y162020
X396500Y179020
Y195020
X419500Y201520
Y212520
Y241020
Y252020
Y280020
Y291020
X396500Y273520
Y258020
X465500
Y273520
X488500Y280020
Y291020
Y252020
Y241020
Y212520
Y201520
Y173020
Y162020
X465500Y179020
Y195020
X419500Y173020
Y162020
X534500Y179020
Y195020
X557500Y201520
Y212520
Y241020
Y252020
Y280020
Y291020
X534500Y273520
Y258020
X557500Y173020
Y162020
T02
X283000Y36520
Y44020
Y52520
Y60520
X149000
X154500Y67020
X149000Y48520
X154500Y42020
X76000
X70500Y48520
Y60520
X76000Y67020
X16500Y155020
Y194520
Y233520
Y273020
X85500Y294520
Y233520
Y194520
Y155020
X154500
Y194520
Y233520
Y273020
X223500
Y233520
Y194520
Y155020
X292500
Y194520
Y233520
Y273020
X361500
Y233520
Y194520
Y155020
X430500
Y194520
Y233520
Y273020
X499500Y294520
Y233520
Y194520
Y155020
T03
X32032Y165748
X39906
X47780
Y205118
X39906
X32032
Y244488
X39906
X47780
Y283858
X39906
X32032
X55654
Y244488
Y205118
Y165748
X101032
X108906
X116780
X124654
Y205118
X116780
X108906
X101032
Y244488
X108906
X116780
X124654
Y283858
X116780
X108906
X101032
X170032
X177906
X185780
X193654
Y244488
X185780
X177906
X170032
Y205118
X177906
X185780
X193654
Y165748
X185780
X177906
X170032
X239031
X246905
X254779
X262653
Y205118
X254779
X246905
X239031
Y244488
X246905
X254779
X262653
Y283858
X254779
X246905
X239031
X308032
X315906
X323780
X331654
Y244488
X323780
X315906
X308032
Y205118
X315906
X323780
X331654
Y165748
X323780
X315906
X308032
X377032Y165748
X384906
X392780
X400654
Y205118
X392780
X384906
X377032
Y244488
X384906
X392780
X400654
Y283858
X392780
X384906
X377032
X446031
X453905
X461779
X469653
Y244488
X461779
X453905
X446031
Y205118
X453905
X461779
X469653
Y165748
X461779
X453905
X446031
X515032Y165748
Y205118
Y244488
Y283858
X522906
X530780
X538654
Y244488
X530780
X522906
Y205118
X530780
X538654
Y165748
X530780
X522906
T04
X341000Y16913
Y63913
T05
X578740Y11811
Y90551
X11811
Y11811
Y303150
X578740
M30
